<?xml version="1.0" standalone="no"?><!DOCTYPE svg PUBLIC "-//W3C//DTD SVG 1.1//EN" "http://www.w3.org/Graphics/SVG/1.1/DTD/svg11.dtd"><svg t="1758068678746" class="icon" viewBox="0 0 1024 1024" version="1.1" xmlns="http://www.w3.org/2000/svg" p-id="3513" xmlns:xlink="http://www.w3.org/1999/xlink" width="200" height="200"><path d="M516.962747 601.642059m-405.90046 0a405.90046 405.90046 0 1 0 811.80092 0 405.90046 405.90046 0 1 0-811.80092 0Z" fill="#B1B1C2" p-id="3514"></path><path d="M647.442064 212.018092c123.132888 52.889349 209.360873 175.244816 209.360873 317.747431 0 103.590401-45.559374 196.50668-117.740297 259.864485a33.98443 33.98443 0 0 0-23.664056-9.555293c-12.122018 0-22.755007 6.346886-28.822186 15.8775a54.131579 54.131579 0 0 0-33.63891-11.702458c-30.039736 0-54.394833 24.350984-54.394832 54.390719 0 1.78519 0.08638 3.529247 0.255027 5.265078a45.386614 45.386614 0 0 0-24.548424-7.206575c-22.705647 0-41.466599 16.576768-44.99996 38.270532a353.582865 353.582865 0 0 1-18.135724 0.473035c-190.904309 0-355.499683-154.764487-355.499683-345.677023 0-107.403469 58.808448-203.363621 135.658014-266.766672-106.498534 73.164011-176.343078 195.799185-176.343078 334.764327C114.945281 821.927968 296.668611 1003.655411 520.837515 1003.655411c224.181244 0 405.904574-181.727443 405.904574-405.90046 0.008227-179.966933-117.123296-332.547235-279.300025-385.736859z m-116.876496 609.136568a33.026022 33.026022 0 1 0-33.026021-33.013682 33.026022 33.026022 0 0 0 33.026021 33.013682z m124.329871-87.416741c9.666353 0 17.481703-7.81535 17.481703-17.485816 0-9.66224-7.81535-17.481703-17.481703-17.481703a17.47759 17.47759 0 0 0-17.485816 17.481703 17.481703 17.481703 0 0 0 17.485816 17.485816z" fill="#A0A0B0" p-id="3515"></path><path d="M906.40984 601.642059c0 214.732898-174.714195 389.44298-389.45532 389.44298C302.221622 991.085039 127.519767 816.374957 127.519767 601.642059c0-214.741125 174.714195-389.45532 389.45532-389.45532 214.732898 0.008227 389.434753 174.714195 389.434753 389.45532zM516.962747 179.288231C284.077671 179.288231 94.613033 368.75287 94.613033 601.642059c0 232.872735 189.468752 422.349714 422.362054 422.349714 232.876849 0 422.353828-189.468752 422.353828-422.349714-0.01234-232.889189-189.476979-422.353828-422.366168-422.353828z" fill="#6E6E96" p-id="3516"></path><path d="M679.238196 267.700401l35.52282-35.514594c15.108305-15.108305 39.837716-15.108305 54.933681 0l78.297462 78.301576c15.112418 15.108305 15.112418 39.833602 0 54.93368l-35.514594 35.526934" fill="#B1B1C2" p-id="3517"></path><path d="M807.393475 286.329726a16.453367 16.453367 0 0 1-9.789754-29.685988c2.768279-2.097804 61.782395-48.549774-3.858314-145.780948a16.461594 16.461594 0 0 1 27.279683-18.415432c67.249026 99.616913 26.823102 168.317948-3.952922 190.723322a16.391667 16.391667 0 0 1-9.678693 3.159046z" fill="#6E6E96" p-id="3518"></path><path d="M763.26143 365.976364s-29.706555 32.651708 10.127048 72.47297c39.825376 39.829489 81.855503-7.84003 81.855503 58.249034 0.01234 0.008227 35.818981-115.782346-91.982551-130.722004z" fill="#A0A0B0" p-id="3519"></path><path d="M798.780137 330.461771c15.112418-15.108305 15.112418-39.833602 0-54.933681l-39.455175-39.459288 0.01234 0.008227 78.297462 78.289235c15.108305 15.116531 15.108305 39.845942 0 54.941907L802.107831 404.826878l-38.842287-38.8464 35.514593-35.518707z" fill="#A5A5B5" p-id="3520"></path><path d="M802.453351 279.184851s-23.919083-20.698336-44.625645 0-42.717055 42.712942-42.717055 42.712942l-40.792012-40.792011 59.24035-59.240349 68.894362 57.319418z" fill="#BEBED1" opacity=".59" p-id="3521"></path><path d="M812.477565 417.401364a16.457481 16.457481 0 0 1-11.636644-28.085898l35.514594-35.526934c4.203835-4.199722 6.515533-9.826774 6.515533-15.836366s-2.311698-11.636644-6.51142-15.836366l-78.297462-78.305689c-4.199722-4.199722-9.82266-6.51142-15.836366-6.51142s-11.636644 2.311698-15.844593 6.51142l-35.518707 35.514594a16.453367 16.453367 0 1 1-23.265061-23.269175l35.52282-35.514593c10.406755-10.414982 24.29751-16.14898 39.105541-16.148981 14.803917 0 28.694673 5.733999 39.105541 16.148981l78.293349 78.301575c10.414982 10.410868 16.153093 24.301624 16.153093 39.101428s-5.738112 28.690559-16.153093 39.105541l-35.51048 35.518706a16.350534 16.350534 0 0 1-11.636645 4.833177z" fill="#6E6E96" p-id="3522"></path><path d="M336.489873 412.769741c14.396696 37.908558 67.639793 14.43783 118.929053-5.055297 51.297486-19.476674 111.775951-27.600524 97.375142-65.504969-14.404923-37.908558-98.238943-52.848216-149.528203-33.363316-51.268693 19.493127-81.176801 66.019137-66.775992 103.923582z" fill="#FFFFFF" opacity=".32" p-id="3523"></path><path d="M309.002044 511.712666a29.525568 45.06166 10.918 1 0-57.982266-11.184517 29.525568 45.06166 10.918 1 0 57.982266 11.184517Z" fill="#FFFFFF" opacity=".18" p-id="3524"></path><path d="M808.812578 109.353193m-100.217461 0a100.217461 100.217461 0 1 0 200.434922 0 100.217461 100.217461 0 1 0-200.434922 0Z" fill="#FFD67F" opacity=".6" p-id="3525"></path><path d="M810.688262 115.704193m-43.181863 0a43.181863 43.181863 0 1 0 86.363725 0 43.181863 43.181863 0 1 0-86.363725 0Z" fill="#FFB47F" p-id="3526"></path></svg>